<svg xmlns="http://www.w3.org/2000/svg" width="251.141" height="250.698"><g fill-rule="evenodd" clip-rule="evenodd" fill="#D0B46C"><path d="M123.321 156.26l-1.89-2.137c-8.043-9.079-12.871-21.914-13.396-35.454a2.534 2.534 0 012.433-2.625 2.536 2.536 0 012.629 2.43c.422 10.961 3.897 21.266 9.563 29.095l.671.885 1.451-1.992c3.138-4.615 5.625-10.149 7.163-16.435a57.83 57.83 0 001.595-11.022 2.532 2.532 0 015.057.241 63.033 63.033 0 01-1.731 11.984c-2.233 9.12-6.33 16.919-11.649 22.899l-1.896 2.131zM108.035 37.588c.525-13.537 5.352-26.375 13.396-35.451L123.321 0l1.896 2.131c5.319 5.981 9.416 13.779 11.649 22.897a63.075 63.075 0 011.731 11.987 2.532 2.532 0 01-5.057.239 57.862 57.862 0 00-1.595-11.023c-1.538-6.284-4.025-11.817-7.163-16.43l-1.451-1.992-.671.882c-5.666 7.829-9.141 18.134-9.563 29.095a2.535 2.535 0 01-2.629 2.43 2.538 2.538 0 01-2.433-2.628zm42.761 74.057a2.53 2.53 0 112.358-4.478c9.707 5.114 20.376 7.258 29.991 6.269l1.101-.139-1.001-2.252c-2.431-5.024-5.977-9.945-10.654-14.422a58.107 58.107 0 00-8.756-6.888 2.53 2.53 0 112.737-4.258 63.388 63.388 0 019.517 7.49c6.783 6.492 11.495 13.938 14.013 21.534l.9 2.707-2.796.571c-11.887 2.421-25.421.184-37.41-6.134zM80.552 71.106c-11.466-7.225-20.176-17.821-24.018-29.325l-.906-2.705 2.794-.576c7.845-1.615 16.647-1.262 25.662 1.365a62.725 62.725 0 0111.247 4.495 2.53 2.53 0 11-2.318 4.497 58.023 58.023 0 00-10.348-4.132c-6.214-1.81-12.251-2.425-17.82-2.016l-2.449.265.424 1.021c3.953 8.819 11.145 16.98 20.428 22.824a2.538 2.538 0 01.795 3.492 2.534 2.534 0 01-3.491.795zm82.04-.795a2.535 2.535 0 01.792-3.492c9.283-5.844 16.477-14.005 20.425-22.824l.427-1.023-2.449-.262c-5.569-.409-11.605.203-17.82 2.013a58.195 58.195 0 00-10.348 4.134 2.535 2.535 0 01-3.411-1.088 2.537 2.537 0 011.09-3.412 63.315 63.315 0 0111.25-4.492c9.015-2.627 17.82-2.98 25.662-1.365l2.794.576-.903 2.705c-3.843 11.503-12.552 22.099-24.018 29.325a2.534 2.534 0 01-3.491-.795zM58.43 117.778l-2.796-.571.898-2.707c2.521-7.596 7.23-15.041 14.013-21.534a63.26 63.26 0 019.517-7.49 2.533 2.533 0 012.74 4.258 57.85 57.85 0 00-8.755 6.888c-4.676 4.476-8.226 9.398-10.654 14.422l-1.003 2.252 1.101.139c9.614.99 20.284-1.157 29.991-6.269a2.53 2.53 0 112.361 4.476c-11.993 6.318-25.525 8.558-37.413 6.136z"/><path d="M149.788 88.461c-3.372-.98-7.531-2.952-10.25-4.798 6.603-6.744 14.339-9.747 23.439-8.253a22.4 22.4 0 014.036.908 16.8 16.8 0 011.23.457c.203.082.401.19.609.257-.532.11-1.181.159-1.731.234-.946.124-1.911.324-2.855.501a64.3 64.3 0 00-9.527 2.571c-1.057.378-2.053.826-3.076 1.281-.769.344-1.618.797-2.462 1.319.651.244 1.317.465 2.001.663 9.064 2.636 18.489.527 25.181-4.756l.841-.717-.643-.558c-2.67-2.157-5.859-3.857-9.475-4.911-11.245-3.139-21.284.524-29.247 8.004h-9.617a5.535 5.535 0 00.002-5.062h8.09c8.035-7.86 20.402-11.223 32.187-7.801 5.682 1.653 10.528 4.685 14.229 8.595l1.649 1.743-1.651 1.738c-8 8.423-20.791 12.123-32.96 8.585zm-71.674 0c-5.682-1.653-10.528-4.685-14.231-8.595l-1.646-1.741 1.651-1.741c8.002-8.421 20.79-12.123 32.962-8.585 3.369.98 7.529 2.952 10.247 4.798-6.6 6.744-14.339 9.747-23.439 8.253a22.651 22.651 0 01-4.036-.905 19.089 19.089 0 01-1.229-.46c-.203-.082-.402-.188-.61-.257.535-.108 1.178-.159 1.729-.231.949-.126 1.916-.324 2.857-.504a64.208 64.208 0 009.525-2.571c1.06-.375 2.055-.825 3.079-1.28.772-.344 1.62-.797 2.462-1.319a28.706 28.706 0 00-1.999-.663c-9.066-2.635-18.491-.527-25.183 4.757l-.843.718.646.558c2.67 2.157 5.859 3.857 9.476 4.911 14.137 3.7 22.562-1.473 29.186-8.001h9.679a5.526 5.526 0 000 5.063h-8.092c-8.037 7.857-20.406 11.222-32.191 7.795zm14.655 42.545l-.679-2.299c-3.295-11.138-.111-24.061 9.044-32.829 2.533-2.427 6.32-5.044 9.278-6.471 2.544 9.086 1.278 17.289-4.568 24.418a22.873 22.873 0 01-2.804 3.042c-.324.288-.669.565-1.011.833-.175.136-.363.252-.527.398.172-.517.45-1.1.663-1.612.363-.887.676-1.818.99-2.723a64.32 64.32 0 002.539-9.534c.201-1.106.311-2.188.427-3.304.087-.838.118-1.802.087-2.792-.535.442-1.06.91-1.571 1.398-6.819 6.534-9.702 15.743-8.473 24.179l.201 1.088.805-.278c3.205-1.231 6.271-3.142 8.992-5.749 10.275-10.387 10.008-20.266 7.66-29.263l4.841-8.379a5.543 5.543 0 004.386 2.528l-4.046 7.007c2.791 10.883-.473 23.271-9.336 31.761-4.272 4.093-9.321 6.775-14.563 8.025l-2.335.556zm30.82-58.404l4.044-7.006c-2.791-10.887.476-23.272 9.337-31.762 4.275-4.093 9.321-6.775 14.563-8.025l2.333-.553.679 2.296c3.295 11.138.111 24.061-9.041 32.826-2.534 2.43-6.322 5.045-9.28 6.477-2.541-9.089-1.278-17.288 4.568-24.418a22.432 22.432 0 012.801-3.042c.326-.291.671-.571 1.013-.836.172-.134.363-.252.527-.398-.172.516-.45 1.1-.663 1.612-.365.887-.676 1.818-.99 2.726a64.208 64.208 0 00-2.536 9.531c-.203 1.106-.311 2.191-.427 3.304-.088.838-.121 1.8-.09 2.79.537-.439 1.06-.908 1.571-1.399 6.821-6.531 9.702-15.741 8.473-24.176l-.198-1.088-.807.28c-3.202 1.229-6.271 3.142-8.992 5.746-8.341 8.166-10.191 18.685-7.691 29.319l-4.807 8.326a5.554 5.554 0 00-4.387-2.53zm30.263 58.412l-2.33-.563c-11.297-2.712-20.901-11.935-23.921-24.241-.836-3.406-1.209-7.993-.967-11.269 9.144 2.345 15.615 7.538 18.869 16.165a22.331 22.331 0 011.235 3.947c.09.424.159.861.219 1.293.028.216.036.44.077.656-.36-.406-.725-.941-1.062-1.381-.584-.758-1.237-1.494-1.865-2.219a64.077 64.077 0 00-6.988-6.963c-.859-.725-1.741-1.363-2.652-2.023a21.124 21.124 0 00-2.372-1.471c.113.684.257 1.37.425 2.06 2.251 9.169 8.789 16.27 16.711 19.425l1.042.368.165-.836c.533-3.391.412-7.001-.484-10.66-3.863-14.088-12.56-18.796-21.526-21.264l-4.841-8.379a5.417 5.417 0 001.793-.391 5.497 5.497 0 002.593-2.139l4.049 7.004c10.826 3.026 19.923 12.049 22.848 23.966 1.41 5.744 1.209 11.457-.332 16.617l-.686 2.298zm-35.189-55.88l-4.049-7.006c-10.826-3.027-19.921-12.049-22.848-23.966-1.41-5.744-1.209-11.457.332-16.618l.684-2.299 2.333.563c11.294 2.715 20.898 11.936 23.918 24.241.836 3.407 1.209 7.994.967 11.272-9.141-2.345-15.615-7.541-18.866-16.167a22.168 22.168 0 01-1.237-3.947c-.09-.424-.159-.861-.216-1.291-.031-.219-.039-.442-.083-.659.363.409.728.941 1.065 1.381.587.759 1.237 1.494 1.865 2.221a64.588 64.588 0 006.988 6.96c.856.728 1.744 1.365 2.652 2.023.684.496 1.5 1.003 2.369 1.474a28.681 28.681 0 00-.422-2.062c-2.248-9.169-8.786-16.271-16.711-19.423l-1.042-.37-.165.838c-.532 3.389-.409 6.999.484 10.66 2.904 11.3 11.096 18.16 21.557 21.315l4.807 8.323a5.528 5.528 0 00-4.382 2.537z"/><path d="M113.789 81.948c-2.109-5.258.45-11.239 5.71-13.347 5.26-2.106 11.24.45 13.349 5.71 2.109 5.258-.45 11.236-5.71 13.345s-11.243-.45-13.349-5.708zm11.59 1.319a5.537 5.537 0 003.079-7.199 5.542 5.542 0 00-7.199-3.078 5.54 5.54 0 00-3.079 7.2 5.54 5.54 0 007.199 3.077zm-4.722-18.502a2.862 2.862 0 011.592-3.723 2.863 2.863 0 112.132 5.314 2.862 2.862 0 01-3.724-1.591zm0 28.864a2.864 2.864 0 115.317-2.13 2.864 2.864 0 01-5.317 2.13zm-10.25-19.878a2.863 2.863 0 11.816-5.669 2.865 2.865 0 11-.816 5.669zm25.003 14.432a2.864 2.864 0 113.243-2.427 2.863 2.863 0 01-3.243 2.427zm-26.367-.581a2.87 2.87 0 01-.483-4.024 2.872 2.872 0 014.025-.483 2.872 2.872 0 01.484 4.024 2.873 2.873 0 01-4.026.483zm25.004-14.432a2.87 2.87 0 01-.484-4.024 2.872 2.872 0 014.025-.483 2.872 2.872 0 01.484 4.024 2.872 2.872 0 01-4.025.483z"/><path d="M122.03 74.921a3.455 3.455 0 014.496 1.923 3.452 3.452 0 01-1.924 4.494 3.455 3.455 0 01-4.496-1.923 3.452 3.452 0 011.924-4.494zm3.308-17.121a6.39 6.39 0 00-4.041 0l.026-7.276.224-8.405.599-8.403 1.162-8.403 1.181 8.403.599 8.403.224 8.405.026 7.276zm0 40.658a6.404 6.404 0 01-4.041 0l.026 7.279.224 8.403.599 8.403 1.162 8.402 1.181-8.402.599-8.403.224-8.403.026-7.279zm-18.622-32.243a6.403 6.403 0 00-2.022 3.5l-6.291-3.664-7.169-4.394-6.978-4.721-6.7-5.207 7.871 3.181 7.58 3.682 7.39 4.008 6.319 3.615zm35.225 20.328a6.413 6.413 0 01-2.022 3.502l6.32 3.613 7.389 4.011 7.583 3.682 7.858 3.193-6.69-5.219-6.978-4.723-7.169-4.392-6.291-3.667zm-37.255 0a6.353 6.353 0 002.022 3.5l-6.322 3.615-7.39 4.011-7.577 3.682-7.863 3.193 6.693-5.219 6.975-4.723 7.169-4.392 6.293-3.667zm35.223-20.328a6.406 6.406 0 012.024 3.5l6.286-3.664 7.171-4.394 6.981-4.721 6.698-5.207-7.868 3.181-7.583 3.682-7.387 4.006-6.322 3.617z"/></g><path d="M35.289 151.709v16.414h-.821l-5.745-15.593H13.952v26.261H25.44v-7.387h.821v15.593h-.821v-7.387H13.952v28.724h15.593l5.745-15.593h.82v16.414H0v-.821h4.924V152.53H0v-.821h35.289zm58.262.821h-6.566L67.7 209.156h-1.642L45.953 152.53h-4.924v-.821h19.696v.821H55.8l15.593 43.496 14.773-43.496H79.6v-.821h13.952v.821zm41.03 55.805v.821h-19.697v-.821h4.924l-5.334-14.771H94.45l-5.006 14.771h6.565v.821H82.058v-.821h6.565l19.286-56.626h1.641l20.106 56.626h4.925zm-20.517-15.593l-9.848-27.903-9.437 27.903h19.285zm62.366 0v16.414H139.5v-.821h4.924V152.53H139.5v-.821h18.874v.821h-4.924v55.805h16.414l5.745-15.593h.821zm8.201-40.212v-.821h18.875v.821h-4.924v55.805h4.924v.821h-18.875v-.821h4.924V152.53h-4.924zm58.264 46.778c0-16.414-29.543-13.132-29.543-33.648 0-8.206 7.387-15.593 18.056-15.593 9.027 0 15.593 6.566 15.593 10.669 0 3.282-2.463 5.745-5.745 5.745-3.284 0-5.745-2.463-5.745-5.745s2.461-5.745 5.745-5.745c.821 0 2.05.41 2.05.41s-4.513-4.513-11.898-4.513c-7.387 0-12.311 4.924-12.311 9.848 0 16.414 29.543 13.129 29.543 33.648 0 9.027-7.385 16.414-18.875 16.414-12.311 0-18.874-11.079-18.874-11.079v-1.15c.326.493 6.81 11.408 18.874 11.408 8.206 0 13.13-4.924 13.13-10.669zM12 249.891H2.321v-.403H4.74v-27.424H2.321v-.403h7.662c7.259 0 10.083 2.823 10.083 6.05 0 5.242-6.453 5.646-6.453 5.646v.202s9.275.201 9.275 8.065c.001 4.638-3.629 8.267-10.888 8.267zm-2.823-27.827v11.292h.806c3.227 0 5.283-.604 5.243-.604V222.67s-2.017-.605-5.243-.605h-.806zm8.872 26.214V234.97s-2.419-1.21-6.049-1.21H9.177v15.729H12c3.63-.001 6.049-1.211 6.049-1.211zm26.213-26.617v8.066h-.403l-2.823-7.663h-7.259v12.905h5.646v-3.63h.403v7.663h-.403v-3.63h-5.646v14.115h7.662l2.823-7.662h.403v8.065H26.92v-.403h2.419v-27.424H26.92v-.403h17.342zm27.826 27.827v.403h-9.679v-.403h2.42l-2.622-7.259h-9.84l-2.46 7.259h3.226v.403h-6.856v-.403h3.227l9.477-27.827h.807l9.88 27.827h2.42zm-10.082-7.662l-4.84-13.712-4.638 13.712h9.478zm21.978 8.872c-5.444 0-9.477-4.033-9.477-10.485v-18.148h-2.42v-.403h9.275v.403h-2.42v26.819s2.017 1.411 5.041 1.411c5.243 0 9.074-3.831 9.074-10.082v-14.075c-.04.081-.887 1.573-2.823 1.573-1.814 0-3.226-1.412-3.226-3.227s1.411-3.227 3.226-3.227 3.227 1.412 3.227 3.227v15.729c.001 6.452-4.031 10.485-9.477 10.485zm34.481-20.971h-.403l-2.822-7.663h-4.84v27.424h2.42v.403h-9.276v-.403h2.42v-27.424h-4.839l-2.823 7.663h-.403v-8.066h20.567v8.066zm16.131 19.761h2.42v.403h-9.276v-.403h2.42v-12.099l-7.662-15.325h-2.42v-.403h9.679v.403h-2.42l7.26 14.519 7.259-14.519h-3.226v-.403h6.855v.403h-3.227l-7.662 15.325v12.099zm45.167-6.452v.806s-4.033 6.856-11.897 6.856c-7.461 0-13.913-6.453-13.913-14.922s6.452-14.922 13.913-14.922c6.654 0 10.688 4.033 10.688 6.453 0 1.814-1.411 3.227-3.227 3.227-1.814 0-3.227-1.412-3.227-3.227s1.412-3.227 3.227-3.227c.524 0 .888.161.968.201-.121-.12-3.105-3.024-8.429-3.024-5.444 0-8.671 3.428-8.671 3.428v22.182s3.227 3.428 8.671 3.428c7.662 0 11.695-6.937 11.897-7.259zm26.212 6.452v.403h-9.679v-.403h2.42l-2.622-7.259h-9.84l-2.46 7.259h3.227v.403h-6.856v-.403h3.227l9.478-27.827h.807l9.88 27.827h2.418zm-10.082-7.662l-4.84-13.712-4.638 13.712h9.478zm33.875 7.662v.403h-9.275v-.403h2.42v-12.905s-2.42-1.21-6.05-1.21h-1.613v14.115h2.42v.403h-9.275v-.403h2.42v-27.424h-2.42v-.403h8.065c7.663 0 10.889 3.227 10.889 6.856 0 5.767-7.662 6.613-8.429 6.654.524.04 8.429.645 8.429 7.058v7.259h2.419zm-14.519-14.518h1.21c3.63 0 6.05-1.008 6.05-1.008v-10.889s-2.42-1.009-6.05-1.009h-1.21v12.906zm35.488-13.309v8.066h-.403l-2.822-7.663h-7.26v12.905h5.646v-3.63h.403v7.663h-.403v-3.63h-5.646v14.115h7.663l2.822-7.662h.403v8.065h-17.744v-.403h2.42v-27.424h-2.42v-.403h17.341z" fill="#FFF" stroke="#FFF" stroke-miterlimit="10"/></svg>