<svg xmlns="http://www.w3.org/2000/svg" width="254.941" height="70.921"><g fill="#FFF"><path d="M38.521 62.83c-.356-.101-.571-.265-.645-.493-.073-.229-.11-.404-.11-.527 0-.279.097-.604.29-.976.356-.619.904-1.216 1.643-1.788.739-.572 1.522-1.087 2.351-1.544s1.556-.824 2.182-1.103c.31-.457.465-.774.465-.952 0-.154-.089-.232-.267-.232-.325 0-.94.252-1.846.755-.797.472-2.128 1.439-3.993 2.902l-.487.383c-.279.217-.558.325-.836.325-.301 0-.514-.213-.638-.639a1.335 1.335 0 01-.023-.255c0-.999.913-2.678 2.74-5.039a65.158 65.158 0 015.259-5.979l-.151.012c-.131 0-.197-.034-.197-.104 0-.208.426-.557 1.277-1.045.201-.101.368-.15.5-.15.069 0 .131.016.186.047.155.076.236.164.244.261s.012.152.012.169a.454.454 0 01-.127.336c-.882.828-1.871 2.029-2.966 3.604s-2.115 3.102-3.059 4.579l-1.219 1.881c1.579-1.184 2.964-2.043 4.156-2.577.75-.332 1.381-.499 1.892-.499.263 0 .499.051.708.151.34.162.511.557.511 1.185a33.213 33.213 0 013.366-1.057l.104-.012c.217 0 .356.108.418.325l.012.104c0 .218-.109.353-.325.407a32.461 32.461 0 00-3.877 1.254c-.403.819-1.049 1.687-1.938 2.6-1.447 1.486-2.91 2.647-4.388 3.482-.325.163-.627.244-.905.244a1.305 1.305 0 01-.319-.035zm2.17-3.064c1.238-.967 1.942-1.536 2.113-1.706-1.486.828-2.605 1.602-3.355 2.321-.472.449-.708.692-.708.731.008.008.015.012.023.012.124 0 .767-.452 1.927-1.358z"/><path d="M44.302 70.829c-.186-.132-.279-.359-.279-.686 0-.936.589-2.229 1.765-3.877 1.316-1.818 3.324-3.846 6.025-6.083a56.03 56.03 0 002.021-3.924c-.379.387-.921.861-1.625 1.423-.705.561-1.366.949-1.985 1.166-.31.085-.572.128-.789.128-.426 0-.685-.155-.778-.465a1.506 1.506 0 01-.058-.43c0-.874.569-2.283 1.707-4.225a50.724 50.724 0 011.486-2.392.6.6 0 01-.162.035c-.078 0-.116-.035-.116-.105 0-.192.317-.576.952-1.148.17-.124.321-.187.453-.187.093 0 .182.035.267.104s.128.171.128.302a1 1 0 01-.117.418c-1.369 2.454-2.153 4.067-2.35 4.841-.198.773-.296 1.262-.296 1.463 0 .294.093.441.279.441.696 0 2.283-1.788 4.76-5.363.271-.371.518-.558.743-.558l.081.012a.693.693 0 01.528.395c.104.218.156.402.156.557a.712.712 0 01-.035.222c-.48 1.393-1.165 3.014-2.055 4.864a86.19 86.19 0 014.899-3.239.441.441 0 01.232-.069c.147 0 .268.069.36.209a.42.42 0 01.058.208.414.414 0 01-.197.372c-2.392 1.479-4.458 2.875-6.199 4.19-2.036 3.908-4.187 7.043-6.455 9.403-.89.898-1.567 1.471-2.032 1.719-.464.247-.813.371-1.044.371a.529.529 0 01-.328-.092zm2.148-3.145c1.408-1.456 2.74-3.189 3.994-5.201-2.74 2.522-4.458 4.612-5.155 6.269.386-.318.774-.674 1.161-1.068zm25.899-5.213c-1.152-.209-1.87-.558-2.153-1.045-.282-.488-.423-.901-.423-1.242 0-1.587 1.509-3.494 4.526-5.723a233.115 233.115 0 014.354-3.042c2.306-1.579 3.459-2.415 3.459-2.508 0-.03-.619-.123-1.857-.278a67.671 67.671 0 01-2.833-.43c-2.367-.395-3.769-.956-4.202-1.684-1.23.101-2.194.151-2.891.151-.441 0-.824-.027-1.149-.081-.728-.162-1.097-.306-1.108-.43s-.018-.193-.018-.209c0-.224.333-.353.998-.383.944.008 1.433.034 1.463.081l.047.058c0 .07-.426.132-1.277.186.333-.008 1.339-.062 3.019-.162.302-.023.546-.038.731-.046.008-.171.039-.345.093-.522.209-.805 1.219-1.745 3.03-2.821 2.739-1.517 5.738-2.65 8.996-3.401 1.486-.31 2.693-.464 3.622-.464.55 0 1.002.054 1.358.162.773.232 1.161.614 1.161 1.149 0 .116-.02.239-.058.371-.218.735-.883 1.516-1.997 2.339-1.114.825-2.551 1.522-4.307 2.096-2.469.789-5.596 1.374-9.381 1.753.325.355.904.635 1.736.836.831.202 1.735.378 2.711.528.975.15 1.847.321 2.617.511s1.232.389 1.387.598.232.364.232.464c0 .535-.979 1.421-2.937 2.659-.782.495-1.575.976-2.38 1.439a46.408 46.408 0 00-3.082 1.898 18.287 18.287 0 00-2.861 2.385c-.93.991-1.397 1.632-1.405 1.922l-.012.446c0 .938.867 1.405 2.601 1.405 1.169 0 2.484-.217 3.947-.649a14.128 14.128 0 002.995-1.267c2.94-1.663 5.839-4.12 8.695-7.371a.403.403 0 01.324-.151c.093 0 .187.039.279.116a.388.388 0 01.139.313.422.422 0 01-.104.278c-2.895 3.298-5.866 5.816-8.916 7.558-1.748.983-3.272 1.618-4.573 1.904-1.3.286-2.36.43-3.181.43a7.41 7.41 0 01-1.415-.127zM87.882 42.41c.882-.502 1.406-.89 1.573-1.161.166-.271.249-.452.249-.545 0-.232-.216-.391-.649-.477a2.708 2.708 0 00-.534-.046c-.674 0-1.676.144-3.007.43-3.088.712-5.921 1.78-8.498 3.203-1.292.759-2.031 1.34-2.217 1.742 6.028-.549 10.389-1.597 13.083-3.146zm.824 16.869c0-.588.093-1.304.278-2.147.449-1.835 1.252-3.825 2.409-5.974 1.157-2.147 2.425-4.037 3.802-5.67.976-1.114 1.895-1.938 2.757-2.468.863-.529 1.554-.795 2.072-.795.542 0 .813.283.813.848 0 .836-.662 2.159-1.985 3.97-1.053 1.401-2.258 2.831-3.616 4.29s-2.583 2.603-3.675 3.431c-.418.99-.724 1.907-.917 2.751-.146.658-.221 1.199-.221 1.625 0 .295.035.534.104.72.171.418.453.627.848.627.457 0 1.018-.2 1.684-.604a13.584 13.584 0 001.776-1.277 52.713 52.713 0 004.167-4.028.4.4 0 01.29-.127c.116 0 .217.04.303.122a.43.43 0 01.139.284c0 .116-.039.22-.116.313-2.763 2.956-4.995 4.863-6.698 5.723-.882.441-1.691.662-2.426.662-1.191-.001-1.788-.76-1.788-2.276zm6.681-9.357a49.926 49.926 0 002.78-3.391c.79-1.06 1.225-1.708 1.306-1.944.082-.235.123-.385.123-.446 0-.086-.035-.128-.105-.128-.231 0-.716.328-1.45.986a19.103 19.103 0 00-1.545 1.591c-1.578 1.873-2.956 4.009-4.132 6.408a40.56 40.56 0 003.023-3.076z"/><path d="M98.225 58.756c-.433-.225-.649-.588-.649-1.092 0-.758.554-1.779 1.659-3.064a16.15 16.15 0 013.355-2.844c.797-.472 1.436-.708 1.916-.708.139 0 .263.019.371.058.41.147.615.441.615.883 0 .734-.499 1.548-1.498 2.438a9.68 9.68 0 01-1.968 1.312c-.685.341-1.282.511-1.793.511h-.162c-.364.504-.546.886-.546 1.149 0 .063.012.12.034.174.124.264.312.397.563.401.251.004.4.005.447.005.41 0 .843-.054 1.3-.162.526-.116.96-.244 1.3-.383a14.063 14.063 0 002.531-1.271c.781-.499 1.416-.997 1.904-1.492a.404.404 0 01.29-.127.42.42 0 01.302.127.417.417 0 01.127.303.462.462 0 01-.115.301c-.519.526-1.195 1.057-2.032 1.591-.835.534-1.733.991-2.693 1.37-1.106.426-1.956.669-2.548.731-.592.062-1 .093-1.225.093-.603-.002-1.098-.103-1.485-.304zm5.213-4.969c.735-.643 1.103-1.014 1.103-1.115 0-.022-.016-.033-.046-.033-.116 0-.384.129-.802.388-.417.26-.892.6-1.422 1.021-.53.423-1.016.865-1.457 1.329.79-.231 1.664-.761 2.624-1.59z"/><path d="M112.342 58.431a5.518 5.518 0 01-.163-1.3c.008-1.122.097-2.179.268-3.17a27.534 27.534 0 00-2.253 2.067c-.224.231-.468.506-.731.824a17.25 17.25 0 01-.795.894c-.267.278-.515.478-.743.598s-.412.18-.551.18c-.441 0-.662-.363-.662-1.091 0-.264.112-.654.337-1.173l2.24-5.178c.155-.348.41-.521.767-.521.116 0 .232.022.348.069.341.162.512.422.512.777a.897.897 0 01-.07.337l-1.811 4.226.557-.546h.012c.921-.937 1.684-1.637 2.287-2.101.627-.573 1.149-.859 1.567-.859.232 0 .43.135.592.406.108.186.163.422.163.708 0 .14-.016.298-.047.477-.193 1.106-.29 2.065-.29 2.879 0 .316.012.576.035.777.03.333.15.499.359.499.363 0 .968-.468 1.811-1.404.743-.82 1.332-1.544 1.765-2.171a.432.432 0 01.36-.186c.085 0 .17.03.255.093.085.062.134.126.146.191s.018.11.018.133a.48.48 0 01-.07.256c-.201.287-.544.712-1.027 1.277a20.975 20.975 0 01-1.631 1.694c-.604.565-1.112.952-1.526 1.161s-.733.313-.957.313c-.523.002-.879-.377-1.072-1.136z"/><path d="M116.498 58.281c-.349-.086-.522-.379-.522-.883 0-.674.263-1.334.789-1.985.959-1.184 2.79-2.016 5.491-2.495h.034c.101 0 .197.036.291.109a.36.36 0 01.139.297c0 .263-.127.41-.383.44-.465.069-1.07.305-1.817.702a10.74 10.74 0 00-1.938 1.301c-.545.468-.818.865-.818 1.189 0 .155.066.232.197.232.225 0 .67-.274 1.335-.824a23.463 23.463 0 001.834-1.625c.442-.449.824-.674 1.15-.674.216 0 .324.082.324.244 0 .108-.05.248-.15.418a1.64 1.64 0 00-.203.568 3.425 3.425 0 00-.053.558c0 .101.008.205.023.313.054.41.141.627.262.65.119.022.198.035.237.035.286 0 .731-.256 1.335-.767.41-.341.991-.75 1.741-1.23.441-.271.806-.406 1.092-.406a.42.42 0 01.302.122.407.407 0 01.128.307.412.412 0 01-.128.302.41.41 0 01-.302.128c-.217 0-.848.375-1.893 1.126l-.186.14c-1.037.774-1.808 1.161-2.311 1.161-.131 0-.259-.02-.383-.058-.387-.116-.635-.589-.743-1.417a5.912 5.912 0 01-.012-.383v-.197c-.239.231-.669.58-1.288 1.044-1.401 1.062-2.48 1.591-3.239 1.591a1.606 1.606 0 01-.335-.033zm32.215 5.072a.845.845 0 01-.349-.557c-.194-.944-1.323-1.416-3.391-1.416-.742 0-1.481.03-2.217.093-1.192.108-2.36.235-3.506.383-1.54.217-2.739.325-3.599.325-.108 0-.219-.005-.331-.012a.378.378 0 01-.272-.134.407.407 0 01-.104-.272c0-.132.044-.236.133-.314a.447.447 0 01.297-.115h.034c.132.008.271.012.418.012.875 0 2.368-.236 4.481-.708a62.526 62.526 0 013.343-.65c1.494-4.326 3.352-8.234 5.572-11.726 1.78-2.801 3.967-5.51 6.56-8.126-2.856.055-5.321.345-7.396.871-2.956.759-4.976 2.295-6.06 4.608.178-.101.31-.15.395-.15.063 0 .093.034.093.104 0 .216-.325.646-.975 1.289l-.047.057a.378.378 0 01-.243.094.42.42 0 01-.151-.023c-.201-.054-.302-.186-.302-.395a.64.64 0 01.012-.128c.503-1.602 1.333-2.956 2.49-4.063a12.844 12.844 0 014.011-2.601 16.318 16.318 0 016.339-1.253c1.045 0 2.186.077 3.424.231l.035.013c2.693.34 4.833.982 6.42 1.927.139.085.209.201.209.348a.482.482 0 01-.082.25c-.054.089-.117.142-.191.156a.743.743 0 01-.156.023.459.459 0 01-.221-.058c-1.394-.805-3.518-1.235-6.373-1.289-1.881 2.105-4.005 5.069-6.374 8.893-2.507 4.048-4.48 7.654-5.92 10.819a9.702 9.702 0 011.219-.081c.852 0 1.609.124 2.275.371.976.356 1.582 1.143 1.822 2.356l.012.163a.83.83 0 01-.15.476.81.81 0 01-.697.36.843.843 0 01-.487-.151z"/><path d="M152.88 59.975c-.449-.154-.678-.541-.686-1.161 0-.813.372-2.491 1.115-5.038.363-1.253.546-2.009.546-2.264 0-.146-.017-.288-.047-.424a1.579 1.579 0 01-.047-.343c0-.062.01-.119.029-.174.019-.054.071-.081.156-.081a.98.98 0 01.313.07c.395.162.635.483.72.963.039.225.059.465.059.72 0 .805-.236 1.993-.708 3.563-.24.852-.36 1.382-.36 1.591 0 .124.027.186.082.186.162 0 .665-.592 1.509-1.776.472-.643.973-1.292 1.503-1.949.53-.658 1.031-1.169 1.504-1.532.255-.194.476-.291.661-.291.248 0 .564.217.952.65.201.225.483.472.848.743.897.681 2.275 1.021 4.132 1.021a.418.418 0 01.419.429.422.422 0 01-.122.302.393.393 0 01-.297.128c-1.624 0-2.921-.247-3.888-.742a5.685 5.685 0 01-1.695-1.277c-.193-.217-.329-.325-.406-.325a.167.167 0 00-.104.035c-.255.201-.501.497-.737.888s-.479.838-.726 1.341a24.951 24.951 0 01-1.155 2.049 8.122 8.122 0 01-1.637 1.887c-.654.557-1.221.836-1.7.836a1.298 1.298 0 01-.233-.025z"/><path d="M165.22 59.825c-.294-.295-.441-.682-.441-1.161 0-.564.112-1.161.337-1.788.201-.549.398-1.006.592-1.37-.681-.627-1.021-1.246-1.021-1.857 0-.673.283-1.284.848-1.833.526-.512 1.185-.887 1.974-1.127.665-.193 1.257-.29 1.776-.29.526 0 .971.104 1.335.313.711.418 1.087.871 1.126 1.358.038.487.058.781.058.882 0 1.091-.422 2.218-1.265 3.378 1.896-.054 3.835-.657 5.815-1.811a.441.441 0 01.232-.069c.146 0 .267.069.359.209a.443.443 0 01.059.22.4.4 0 01-.209.36c-2.229 1.301-4.369 1.95-6.42 1.95-.14 0-.298-.008-.476-.022a13.812 13.812 0 01-2.206 2.077c-.72.542-1.323.813-1.811.813a1.034 1.034 0 01-.662-.232zm3.076-7.593c-.658.162-1.153.395-1.486.697-.301.271-.452.584-.452.939 0 .14.02.287.058.441a10.651 10.651 0 011.88-2.077zm-.586 5.822c.43-.329.833-.683 1.213-1.063a9.909 9.909 0 01-1.741-.581c-.069.14-.17.368-.302.686-.232.534-.349.913-.349 1.138 0 .209.078.313.232.313.202 0 .517-.164.947-.493zm2.595-2.92c.395-.72.592-1.319.592-1.8 0-.665-.337-1.067-1.011-1.207-.681.666-1.446 1.823-2.298 3.472a5.843 5.843 0 001.95.673c.286-.372.542-.751.767-1.138z"/><path d="M181.02 58.431a5.518 5.518 0 01-.163-1.3c.008-1.122.098-2.179.268-3.17a27.538 27.538 0 00-2.252 2.067c-.225.231-.469.506-.731.824-.263.316-.528.614-.795.894-.268.278-.516.478-.743.598-.229.12-.412.18-.552.18-.441 0-.662-.363-.662-1.091 0-.264.113-.654.338-1.173l2.24-5.178c.154-.348.409-.521.766-.521.116 0 .232.022.349.069.34.162.511.422.511.777a.897.897 0 01-.07.337l-1.811 4.226.557-.546h.013c.92-.937 1.683-1.637 2.286-2.101.627-.573 1.149-.859 1.568-.859.23 0 .429.135.592.406.108.186.162.422.162.708 0 .14-.016.298-.046.477-.194 1.106-.291 2.065-.291 2.879 0 .316.012.576.035.777.03.333.15.499.359.499.364 0 .968-.468 1.811-1.404.744-.82 1.332-1.544 1.766-2.171a.429.429 0 01.359-.186c.085 0 .17.03.256.093.085.062.133.126.145.191s.018.11.018.133a.489.489 0 01-.069.256c-.202.287-.544.712-1.027 1.277a21.324 21.324 0 01-1.631 1.694c-.604.565-1.113.952-1.527 1.161s-.733.313-.958.313c-.523.002-.878-.377-1.071-1.136z"/><path d="M186.964 59.024c-.642-.047-1.014-.252-1.114-.616-.101-.363-.151-.657-.151-.882 0-.395.086-.84.255-1.335.21-.611.533-1.229.97-1.852a8.632 8.632 0 011.608-1.713c.225-.17.422-.255.592-.255a.44.44 0 01.174.035c.217.076.333.178.349.301.016.124.023.197.023.222 0 .208-.132.425-.395.649-.349.325-.705.836-1.068 1.532-.526 1.007-.789 1.737-.789 2.194 0 .256.088.426.267.511.054.023.12.035.197.035.302 0 .762-.182 1.382-.546.882-.503 1.942-1.408 3.181-2.717a.445.445 0 01.325-.139c.101 0 .193.04.278.122.085.081.128.152.128.214v.093a.424.424 0 01-.116.291c-1.292 1.37-2.414 2.325-3.367 2.867-1.122.657-1.996.987-2.623.987h-.106v.002zm4.551-8.569a.54.54 0 00.128-.336c0-.194-.074-.317-.222-.372a.696.696 0 00-.255-.069c-.132 0-.286.042-.464.128-.465.231-.697.387-.697.464 0 .039.055.059.163.059.101 0 .236-.016.406-.047-.534.743-.801 1.228-.801 1.451.007.093.05.14.128.14.224-.001.762-.472 1.614-1.418z"/><path d="M197.214 58.431a5.52 5.52 0 01-.162-1.3c.008-1.122.097-2.179.267-3.17a27.538 27.538 0 00-2.252 2.067c-.225.231-.469.506-.731.824a17.25 17.25 0 01-.795.894c-.268.278-.515.478-.743.598s-.411.18-.552.18c-.44 0-.661-.363-.661-1.091 0-.264.112-.654.337-1.173l2.24-5.178c.154-.348.41-.521.766-.521.116 0 .232.022.349.069.341.162.511.422.511.777a.914.914 0 01-.069.337l-1.812 4.226.558-.546h.012c.921-.937 1.683-1.637 2.287-2.101.627-.573 1.149-.859 1.567-.859.231 0 .429.135.592.406.108.186.162.422.162.708 0 .14-.015.298-.046.477-.193 1.106-.291 2.065-.291 2.879 0 .316.012.576.035.777.031.333.151.499.36.499.363 0 .967-.468 1.811-1.404.743-.82 1.331-1.544 1.765-2.171a.43.43 0 01.359-.186c.086 0 .171.03.256.093.085.062.134.126.145.191a.48.48 0 01-.051.389c-.201.287-.543.712-1.027 1.277a21.148 21.148 0 01-1.631 1.694c-.604.565-1.112.952-1.526 1.161-.415.209-.733.313-.958.313-.522.002-.878-.377-1.072-1.136z"/><path d="M201.369 58.281c-.348-.086-.521-.379-.521-.883 0-.674.264-1.334.789-1.985.96-1.184 2.79-2.016 5.491-2.495h.035c.101 0 .197.036.29.109a.36.36 0 01.14.297c0 .263-.128.41-.384.44-.464.069-1.069.305-1.816.702-.747.399-1.394.833-1.939 1.301s-.817.865-.817 1.189c0 .155.065.232.197.232.225 0 .669-.274 1.335-.824a23.463 23.463 0 001.834-1.625c.441-.449.824-.674 1.149-.674.216 0 .325.082.325.244 0 .108-.051.248-.151.418a1.62 1.62 0 00-.203.568 3.54 3.54 0 00-.053.558c0 .101.008.205.023.313.055.41.142.627.262.65.12.022.199.035.238.035.285 0 .73-.256 1.334-.767.41-.341.991-.75 1.742-1.23.44-.271.805-.406 1.091-.406a.42.42 0 01.302.122.404.404 0 01.128.307.408.408 0 01-.128.302.41.41 0 01-.302.128c-.217 0-.848.375-1.893 1.126l-.185.14c-1.038.774-1.808 1.161-2.311 1.161-.132 0-.26-.02-.384-.058-.387-.116-.635-.589-.743-1.417a5.928 5.928 0 01-.011-.383v-.197c-.24.231-.67.58-1.289 1.044-1.4 1.062-2.48 1.591-3.238 1.591a1.64 1.64 0 01-.337-.033z"/></g><path d="M16.201.992v7.419h-.371l-2.597-7.048H6.556v11.87h5.193V9.894h.371v7.048h-.371v-3.339H6.556v12.983h7.048l2.597-7.048h.371v7.419H.25v-.371h2.226V1.364H.25V.993h15.951V.992zm26.334.372h-2.968L30.85 26.959h-.742L21.02 1.364h-2.226V.993h8.902v.371H25.47l7.048 19.66 6.677-19.66h-2.968V.993h6.306v.371h.002zm18.546 25.223v.371h-8.903v-.371h2.226l-2.411-6.677h-9.051l-2.263 6.677h2.967v.371H37.34v-.371h2.967L49.024.992h.742l9.088 25.595h2.227zm-9.274-7.048L47.356 6.927 43.09 19.539h8.717zm28.189 0v7.419H63.304v-.371h2.226V1.364h-2.226V.993h8.531v.371h-2.226v25.224h7.419l2.597-7.048h.371v-.001zm3.707-18.175V.993h8.531v.371h-2.226v25.224h2.226v.371h-8.531v-.371h2.226V1.364h-2.226zm26.335 21.143c0-7.419-13.354-5.936-13.354-15.209 0-3.709 3.339-7.048 8.161-7.048 4.08 0 7.048 2.968 7.048 4.822 0 1.483-1.113 2.597-2.597 2.597s-2.597-1.113-2.597-2.597 1.112-2.597 2.597-2.597c.371 0 .927.186.927.186s-2.04-2.04-5.378-2.04c-3.339 0-5.564 2.226-5.564 4.451 0 7.419 13.354 5.935 13.354 15.209 0 4.08-3.338 7.419-8.531 7.419-5.564 0-8.531-5.008-8.531-5.008v-.52c.147.223 3.078 5.156 8.531 5.156 3.709.001 5.934-2.224 5.934-4.821zm21.883 4.451h-8.902v-.371h2.226V1.364h-2.226V.993h7.048c6.677 0 9.273 2.597 9.273 5.563 0 4.822-5.935 5.193-5.935 5.193v.186s8.531.186 8.531 7.419c.001 4.265-3.338 7.604-10.015 7.604zm-2.597-25.594V11.75h.742c2.968 0 4.859-.557 4.822-.557V1.92s-1.854-.556-4.822-.556h-.742zm8.161 24.111V13.234s-2.226-1.113-5.564-1.113h-2.597v14.467h2.597c3.339-.001 5.564-1.113 5.564-1.113zM161.593.992v7.419h-.37l-2.597-7.048h-6.678v11.87h5.193V9.894h.371v7.048h-.371v-3.339h-5.193v12.983h7.048l2.597-7.048h.371v7.419h-16.321v-.371h2.226V1.364h-2.226V.993h15.95V.992zm25.593 25.595v.371h-8.902v-.371h2.226l-2.411-6.677h-9.051l-2.263 6.677h2.968v.371h-6.307v-.371h2.968L175.131.992h.742l9.088 25.595h2.225zm-9.274-7.048l-4.451-12.612-4.266 12.612h8.717zm20.216 8.161c-5.008 0-8.718-3.71-8.718-9.645V1.364h-2.226V.993h8.532v.371h-2.226v24.667s1.854 1.299 4.637 1.299c4.822 0 8.346-3.524 8.346-9.273V5.11c-.037.074-.816 1.446-2.597 1.446a2.93 2.93 0 01-2.968-2.967c0-1.67 1.299-2.968 2.968-2.968s2.968 1.298 2.968 2.968v14.467c.001 5.935-3.709 9.644-8.716 9.644zM229.84 8.411h-.37l-2.597-7.048h-4.451v25.224h2.226v.371h-8.532v-.371h2.226V1.364h-4.451l-2.597 7.048h-.371V.993h18.918l-.001 7.418h0zm14.835 18.176h2.226v.371h-8.531v-.371h2.226V15.459l-7.048-14.096h-2.226V.992h8.902v.371h-2.226l6.677 13.354 6.678-13.354h-2.968V.992h6.306v.371h-2.968l-7.048 14.096v11.128h0z" fill="#FFF" stroke="#FFF" stroke-width=".5" stroke-miterlimit="10"/></svg>