<svg xmlns="http://www.w3.org/2000/svg" width="254.441" height="156.26"><g fill-rule="evenodd" clip-rule="evenodd" fill="#BEB1A3" opacity=".29"><path d="M125.171 156.26l-1.891-2.136c-8.043-9.079-12.871-21.915-13.396-35.454a2.534 2.534 0 012.434-2.625 2.534 2.534 0 012.628 2.43c.422 10.961 3.897 21.266 9.563 29.095l.671.885 1.451-1.992c3.138-4.615 5.625-10.148 7.163-16.436a57.818 57.818 0 001.595-11.022 2.53 2.53 0 012.649-2.406 2.53 2.53 0 012.407 2.648 63.032 63.032 0 01-1.73 11.983c-2.232 9.12-6.33 16.919-11.649 22.899l-1.895 2.131zM109.885 37.588c.524-13.537 5.353-26.375 13.396-35.451L125.171 0l1.896 2.131c5.319 5.98 9.417 13.779 11.649 22.896a62.993 62.993 0 011.73 11.987 2.53 2.53 0 11-5.056.238 57.761 57.761 0 00-1.595-11.022c-1.538-6.284-4.025-11.817-7.163-16.43l-1.451-1.993-.671.883c-5.666 7.829-9.142 18.134-9.563 29.096a2.534 2.534 0 01-5.062-.198zm42.761 74.058a2.532 2.532 0 012.358-4.48c9.707 5.114 20.376 7.259 29.99 6.269l1.102-.139-1.001-2.252c-2.431-5.024-5.978-9.945-10.653-14.422a58.107 58.107 0 00-8.756-6.888 2.532 2.532 0 012.736-4.259 63.396 63.396 0 019.518 7.49c6.782 6.492 11.494 13.938 14.013 21.533l.9 2.708-2.796.57c-11.888 2.423-25.422.187-37.411-6.13zM82.401 71.105c-11.466-7.225-20.175-17.82-24.018-29.324l-.906-2.705 2.793-.576c7.845-1.614 16.646-1.262 25.662 1.365a62.8 62.8 0 0111.247 4.495 2.531 2.531 0 011.094 3.409 2.532 2.532 0 01-3.411 1.088 58.023 58.023 0 00-10.348-4.132c-6.214-1.81-12.251-2.425-17.819-2.016l-2.448.265.424 1.021c3.953 8.819 11.146 16.98 20.428 22.824a2.537 2.537 0 01.795 3.492 2.535 2.535 0 01-3.493.794zm82.041-.793a2.533 2.533 0 01.792-3.492c9.282-5.844 16.477-14.005 20.425-22.824l.427-1.023-2.448-.262c-5.569-.409-11.605.203-17.82 2.013a58.188 58.188 0 00-10.347 4.135 2.535 2.535 0 01-3.411-1.088 2.537 2.537 0 011.091-3.412 63.24 63.24 0 0111.25-4.492c9.016-2.627 17.82-2.979 25.662-1.365l2.794.576-.903 2.705c-3.843 11.504-12.552 22.1-24.019 29.324a2.538 2.538 0 01-3.493-.795zM60.279 117.777l-2.796-.57.898-2.708c2.521-7.595 7.23-15.041 14.013-21.533a63.26 63.26 0 019.517-7.49 2.533 2.533 0 012.739 4.259 57.787 57.787 0 00-8.755 6.888c-4.676 4.477-8.226 9.397-10.653 14.422l-1.004 2.252 1.102.139c9.614.99 20.283-1.157 29.99-6.269a2.534 2.534 0 013.421 1.06 2.528 2.528 0 01-1.06 3.417c-11.992 6.316-25.524 8.555-37.412 6.133z"/><path d="M151.638 88.461c-3.372-.979-7.531-2.951-10.25-4.798 6.603-6.744 14.34-9.747 23.439-8.253 1.377.18 2.717.479 4.036.907.414.134.828.291 1.229.458.203.082.401.19.609.257-.532.11-1.181.159-1.73.234-.947.123-1.911.323-2.855.501a64.333 64.333 0 00-9.527 2.571c-1.057.378-2.053.825-3.076 1.28-.769.345-1.618.797-2.461 1.319a27.1 27.1 0 002.001.663c9.063 2.636 18.488.527 25.181-4.757l.841-.717-.643-.559c-2.67-2.157-5.859-3.856-9.476-4.911-11.245-3.139-21.284.524-29.247 8.004h-9.617a5.54 5.54 0 00.002-5.063h8.09c8.035-7.859 20.401-11.223 32.188-7.801 5.682 1.653 10.527 4.686 14.229 8.596l1.648 1.743-1.651 1.738c-8 8.426-20.791 12.126-32.96 8.588zm-71.675 0c-5.682-1.653-10.527-4.685-14.23-8.596l-1.646-1.74 1.651-1.74c8.001-8.421 20.79-12.124 32.961-8.586 3.37.979 7.529 2.952 10.248 4.798-6.601 6.744-14.34 9.747-23.439 8.254a22.7 22.7 0 01-4.036-.905 19.089 19.089 0 01-1.229-.46c-.203-.082-.401-.188-.609-.258.535-.107 1.178-.159 1.729-.23.949-.126 1.916-.324 2.857-.505a64.074 64.074 0 009.524-2.571c1.06-.375 2.055-.824 3.079-1.28.771-.344 1.62-.797 2.461-1.318a29.04 29.04 0 00-1.998-.664c-9.066-2.635-18.491-.526-25.184 4.757l-.844.718.646.558c2.67 2.157 5.859 3.856 9.476 4.911 14.137 3.7 22.563-1.474 29.186-8.002h9.679a5.527 5.527 0 00-.213 4.59c.064.165.136.319.213.473h-8.091c-8.036 7.857-20.405 11.224-32.191 7.796zm14.656 42.545l-.679-2.299c-3.295-11.138-.11-24.061 9.043-32.828 2.534-2.427 6.32-5.044 9.278-6.472 2.544 9.087 1.278 17.289-4.568 24.419a22.932 22.932 0 01-2.804 3.041c-.324.288-.669.565-1.011.833-.175.137-.362.252-.527.398.172-.517.45-1.101.664-1.612.362-.887.676-1.817.989-2.723a64.341 64.341 0 002.539-9.533c.201-1.106.312-2.188.427-3.305.088-.838.119-1.802.088-2.792-.535.442-1.06.91-1.571 1.398-6.819 6.533-9.702 15.743-8.473 24.18l.2 1.087.805-.277c3.206-1.231 6.271-3.142 8.992-5.749 10.276-10.388 10.009-20.266 7.66-29.263l4.841-8.379a5.542 5.542 0 004.386 2.527l-4.047 7.007c2.792 10.883-.473 23.271-9.336 31.761-4.272 4.094-9.321 6.775-14.563 8.025l-2.333.556zm30.819-58.404l4.043-7.006c-2.791-10.887.477-23.271 9.337-31.762 4.274-4.093 9.321-6.775 14.563-8.025l2.333-.552.679 2.296c3.295 11.138.11 24.061-9.041 32.826-2.533 2.43-6.322 5.044-9.28 6.477-2.541-9.089-1.278-17.289 4.568-24.418a22.492 22.492 0 012.801-3.042c.327-.291.672-.571 1.014-.836.172-.134.362-.251.527-.398-.173.516-.45 1.1-.664 1.612-.365.887-.676 1.818-.99 2.726a64.33 64.33 0 00-2.536 9.531c-.203 1.105-.311 2.19-.427 3.304-.088.838-.121 1.8-.09 2.79.537-.439 1.06-.908 1.571-1.399 6.821-6.53 9.702-15.74 8.473-24.176l-.198-1.087-.808.28c-3.202 1.229-6.271 3.142-8.992 5.746-8.341 8.167-10.19 18.685-7.69 29.319l-4.808 8.325a5.54 5.54 0 00-4.385-2.531zm30.264 58.412l-2.331-.563c-11.297-2.713-20.9-11.936-23.92-24.241-.836-3.406-1.209-7.994-.968-11.27 9.145 2.345 15.615 7.539 18.869 16.165a22.32 22.32 0 011.235 3.946c.09.425.159.862.218 1.294.028.216.036.439.077.655-.36-.406-.726-.94-1.062-1.381-.585-.758-1.237-1.493-1.865-2.219a64.077 64.077 0 00-6.988-6.963c-.859-.725-1.741-1.362-2.652-2.023a21.106 21.106 0 00-2.371-1.471c.113.684.257 1.37.425 2.06 2.25 9.169 8.788 16.271 16.711 19.426l1.041.367.165-.836c.532-3.391.411-7.001-.483-10.659-3.863-14.088-12.56-18.796-21.526-21.264l-4.841-8.38a5.411 5.411 0 001.793-.391 5.493 5.493 0 002.593-2.14l4.049 7.004c10.825 3.026 19.923 12.049 22.848 23.966 1.409 5.744 1.209 11.457-.332 16.618l-.685 2.3zm-35.189-55.879l-4.049-7.007c-10.825-3.026-19.921-12.048-22.848-23.965-1.41-5.745-1.209-11.458.332-16.618l.684-2.299 2.333.563c11.295 2.715 20.898 11.936 23.918 24.241.836 3.407 1.209 7.994.968 11.272-9.142-2.345-15.615-7.541-18.867-16.167a22.332 22.332 0 01-1.237-3.947c-.09-.424-.159-.861-.216-1.291-.03-.218-.038-.442-.082-.659.363.409.729.941 1.064 1.381.587.758 1.237 1.494 1.865 2.221a64.678 64.678 0 006.988 6.96c.856.728 1.744 1.366 2.652 2.023a21.785 21.785 0 002.368 1.474 27.734 27.734 0 00-.422-2.062c-2.248-9.169-8.786-16.271-16.711-19.423l-1.041-.37-.165.838c-.532 3.389-.409 6.999.483 10.661 2.904 11.3 11.097 18.16 21.558 21.314l4.807 8.323a5.512 5.512 0 00-4.382 2.537z"/><path d="M115.639 81.948c-2.109-5.258.45-11.238 5.71-13.347 5.26-2.106 11.24.45 13.35 5.71 2.108 5.258-.45 11.236-5.71 13.345-5.261 2.109-11.244-.45-13.35-5.708zm11.59 1.32a5.537 5.537 0 003.079-7.199 5.541 5.541 0 00-7.2-3.078 5.538 5.538 0 00-3.078 7.199 5.542 5.542 0 007.199 3.078zm-4.723-18.502c-.589-1.469.124-3.135 1.593-3.724s3.135.123 3.724 1.592a2.865 2.865 0 01-5.317 2.132zm0 28.863c-.589-1.468.124-3.134 1.593-3.723s3.135.123 3.724 1.592c.59 1.468-.123 3.134-1.592 3.723s-3.136-.123-3.725-1.592zm-10.249-19.878a2.865 2.865 0 11.813-5.671 2.865 2.865 0 01-.813 5.671zm25.003 14.433a2.865 2.865 0 11.816-5.672 2.865 2.865 0 01-.816 5.672zm-26.367-.581a2.87 2.87 0 01-.483-4.024 2.873 2.873 0 014.025-.483 2.87 2.87 0 01.483 4.024 2.874 2.874 0 01-4.025.483zm25.003-14.433a2.87 2.87 0 01-.483-4.023 2.872 2.872 0 014.025-.483 2.87 2.87 0 01.483 4.023 2.872 2.872 0 01-4.025.483z"/><path d="M123.88 74.921a3.455 3.455 0 014.496 1.924 3.453 3.453 0 01-1.924 4.494 3.457 3.457 0 11-2.572-6.418zm3.308-17.121a6.39 6.39 0 00-4.041 0l.025-7.276.225-8.405.599-8.403 1.163-8.403 1.181 8.403.599 8.403.224 8.405.025 7.276zm0 40.658a6.411 6.411 0 01-4.041 0l.025 7.278.225 8.403.599 8.402 1.163 8.402 1.181-8.402.599-8.402.224-8.403.025-7.278zm-18.623-32.243a6.408 6.408 0 00-2.021 3.5l-6.292-3.664-7.168-4.395-6.979-4.72-6.7-5.207 7.87 3.181 7.581 3.682 7.389 4.009 6.32 3.614zm35.225 20.328a6.408 6.408 0 01-2.021 3.502l6.32 3.612 7.389 4.012 7.583 3.682 7.857 3.193-6.689-5.22-6.979-4.723-7.168-4.392-6.292-3.666zm-37.254 0a6.354 6.354 0 002.021 3.5l-6.322 3.614-7.39 4.012-7.577 3.682-7.863 3.193 6.692-5.22 6.976-4.723 7.169-4.392 6.294-3.666zm35.223-20.328a6.411 6.411 0 012.023 3.5l6.286-3.664 7.171-4.395 6.981-4.72 6.697-5.207-7.867 3.181-7.583 3.682-7.387 4.006-6.321 3.617z"/></g><g fill="#FFF"><path d="M38.271 115.234c-.356-.101-.571-.265-.645-.493-.073-.229-.11-.404-.11-.527 0-.279.097-.604.29-.976.356-.619.904-1.216 1.643-1.788.739-.572 1.522-1.087 2.351-1.544s1.556-.824 2.182-1.103c.31-.457.465-.774.465-.952 0-.154-.089-.232-.267-.232-.325 0-.94.252-1.846.755-.797.472-2.128 1.439-3.993 2.902l-.487.383c-.279.217-.558.325-.836.325-.301 0-.514-.213-.638-.639a1.335 1.335 0 01-.023-.255c0-.999.913-2.678 2.74-5.039a65.158 65.158 0 015.259-5.979l-.151.012c-.131 0-.197-.034-.197-.104 0-.208.426-.557 1.277-1.045.201-.101.368-.15.5-.15.069 0 .131.016.186.047.155.076.236.164.244.261.008.097.012.152.012.169a.454.454 0 01-.127.336c-.882.828-1.871 2.029-2.966 3.604s-2.115 3.102-3.059 4.579l-1.219 1.881c1.579-1.184 2.964-2.043 4.156-2.577.75-.332 1.381-.499 1.892-.499.263 0 .499.051.708.151.34.162.511.557.511 1.185a33.213 33.213 0 013.366-1.057l.104-.012c.217 0 .356.108.418.325l.012.104c0 .218-.109.353-.325.407a32.461 32.461 0 00-3.877 1.254c-.403.819-1.049 1.687-1.938 2.6-1.447 1.486-2.91 2.647-4.388 3.482-.325.163-.627.244-.905.244a1.305 1.305 0 01-.319-.035zm2.17-3.064c1.238-.967 1.942-1.536 2.113-1.706-1.486.828-2.605 1.602-3.355 2.321-.472.449-.708.692-.708.731.008.008.015.012.023.012.124 0 .767-.452 1.927-1.358z"/><path d="M44.052 123.233c-.186-.132-.279-.359-.279-.686 0-.936.589-2.229 1.765-3.877 1.316-1.818 3.324-3.846 6.025-6.083a56.03 56.03 0 002.021-3.924c-.379.387-.921.861-1.625 1.423-.705.561-1.366.949-1.985 1.166-.31.085-.572.128-.789.128-.426 0-.685-.155-.778-.465a1.506 1.506 0 01-.058-.43c0-.874.569-2.283 1.707-4.225a50.724 50.724 0 011.486-2.392.6.6 0 01-.162.035c-.078 0-.116-.035-.116-.105 0-.192.317-.576.952-1.148.17-.124.321-.187.453-.187.093 0 .182.035.267.104s.128.171.128.302a1 1 0 01-.117.418c-1.369 2.454-2.153 4.067-2.35 4.841-.198.773-.296 1.262-.296 1.463 0 .294.093.441.279.441.696 0 2.283-1.788 4.76-5.363.271-.371.518-.558.743-.558l.081.012a.693.693 0 01.528.395c.104.218.156.402.156.557a.712.712 0 01-.035.222c-.48 1.393-1.165 3.014-2.055 4.864a86.19 86.19 0 014.899-3.239.441.441 0 01.232-.069c.147 0 .268.069.36.209a.42.42 0 01.058.208.414.414 0 01-.197.372c-2.392 1.479-4.458 2.875-6.199 4.19-2.036 3.908-4.187 7.043-6.455 9.403-.89.898-1.567 1.471-2.032 1.719-.464.247-.813.371-1.044.371a.529.529 0 01-.328-.092zm2.148-3.145c1.408-1.456 2.74-3.189 3.994-5.201-2.74 2.522-4.458 4.612-5.155 6.269.386-.318.774-.674 1.161-1.068zm25.899-5.213c-1.152-.209-1.87-.558-2.153-1.045-.282-.488-.423-.901-.423-1.242 0-1.587 1.509-3.494 4.526-5.723a233.115 233.115 0 014.354-3.042c2.306-1.579 3.459-2.415 3.459-2.508 0-.03-.619-.123-1.857-.278a67.671 67.671 0 01-2.833-.43c-2.367-.395-3.769-.956-4.202-1.684-1.23.101-2.194.151-2.891.151-.441 0-.824-.027-1.149-.081-.728-.162-1.097-.306-1.108-.43s-.018-.193-.018-.209c0-.224.333-.353.998-.383.944.008 1.433.034 1.463.081l.047.058c0 .07-.426.132-1.277.186.333-.008 1.339-.062 3.019-.162.302-.023.546-.038.731-.046.008-.171.039-.345.093-.522.209-.805 1.219-1.745 3.03-2.821 2.739-1.517 5.738-2.65 8.996-3.401 1.486-.31 2.693-.464 3.622-.464.55 0 1.002.054 1.358.162.773.232 1.161.614 1.161 1.149 0 .116-.02.239-.058.371-.218.735-.883 1.516-1.997 2.339-1.114.825-2.551 1.522-4.307 2.096-2.469.789-5.596 1.374-9.381 1.753.325.355.904.635 1.736.836.831.202 1.735.378 2.711.528.975.15 1.847.321 2.617.511s1.232.389 1.387.598c.155.209.232.364.232.464 0 .535-.979 1.421-2.937 2.659-.782.495-1.575.976-2.38 1.439a46.408 46.408 0 00-3.082 1.898 18.287 18.287 0 00-2.861 2.385c-.93.991-1.397 1.632-1.405 1.922l-.012.446c0 .938.867 1.405 2.601 1.405 1.169 0 2.484-.217 3.947-.649a14.128 14.128 0 002.995-1.267c2.94-1.663 5.839-4.12 8.695-7.371a.403.403 0 01.324-.151c.093 0 .187.039.279.116a.388.388 0 01.139.313.422.422 0 01-.104.278c-2.895 3.298-5.866 5.816-8.916 7.558-1.748.983-3.272 1.618-4.573 1.904-1.3.286-2.36.43-3.181.43a7.41 7.41 0 01-1.415-.127zm15.533-20.061c.882-.502 1.406-.89 1.573-1.161.166-.271.249-.452.249-.545 0-.232-.216-.391-.649-.477a2.708 2.708 0 00-.534-.046c-.674 0-1.676.144-3.007.43-3.088.712-5.921 1.78-8.498 3.203-1.292.759-2.031 1.34-2.217 1.742 6.028-.549 10.389-1.597 13.083-3.146zm.824 16.869c0-.588.093-1.304.278-2.147.449-1.835 1.252-3.825 2.409-5.974 1.157-2.147 2.425-4.037 3.802-5.67.976-1.114 1.895-1.938 2.757-2.468.863-.529 1.554-.795 2.072-.795.542 0 .813.283.813.848 0 .836-.662 2.159-1.985 3.97-1.053 1.401-2.258 2.831-3.616 4.29s-2.583 2.603-3.675 3.431c-.418.99-.724 1.907-.917 2.751-.146.658-.221 1.199-.221 1.625 0 .295.035.534.104.72.171.418.453.627.848.627.457 0 1.018-.2 1.684-.604a13.584 13.584 0 001.776-1.277 52.713 52.713 0 004.167-4.028.4.4 0 01.29-.127c.116 0 .217.04.303.122a.43.43 0 01.139.284c0 .116-.039.22-.116.313-2.763 2.956-4.995 4.863-6.698 5.723-.882.441-1.691.662-2.426.662-1.191-.001-1.788-.76-1.788-2.276zm6.681-9.357a49.926 49.926 0 002.78-3.391c.79-1.06 1.225-1.708 1.306-1.944.082-.235.123-.385.123-.446 0-.086-.035-.128-.105-.128-.231 0-.716.328-1.45.986a19.103 19.103 0 00-1.545 1.591c-1.578 1.873-2.956 4.009-4.132 6.408a40.56 40.56 0 003.023-3.076z"/><path d="M97.975 111.16c-.433-.225-.649-.588-.649-1.092 0-.758.554-1.779 1.659-3.064a16.15 16.15 0 013.355-2.844c.797-.472 1.436-.708 1.916-.708.139 0 .263.019.371.058.41.147.615.441.615.883 0 .734-.499 1.548-1.498 2.438a9.68 9.68 0 01-1.968 1.312c-.685.341-1.282.511-1.793.511h-.162c-.364.504-.546.886-.546 1.149 0 .063.012.12.034.174.124.264.312.397.563.401.251.004.4.005.447.005.41 0 .843-.054 1.3-.162.526-.116.96-.244 1.3-.383a14.063 14.063 0 002.531-1.271c.781-.499 1.416-.997 1.904-1.492a.404.404 0 01.29-.127.42.42 0 01.302.127.417.417 0 01.127.303.462.462 0 01-.115.301c-.519.526-1.195 1.057-2.032 1.591-.835.534-1.733.991-2.693 1.37-1.106.426-1.956.669-2.548.731-.592.062-1 .093-1.225.093-.603-.002-1.098-.103-1.485-.304zm5.213-4.969c.735-.643 1.103-1.014 1.103-1.115 0-.022-.016-.033-.046-.033-.116 0-.384.129-.802.388-.417.26-.892.6-1.422 1.021-.53.423-1.016.865-1.457 1.329.79-.231 1.664-.761 2.624-1.59z"/><path d="M112.092 110.835a5.518 5.518 0 01-.163-1.3c.008-1.122.097-2.179.268-3.17a27.534 27.534 0 00-2.253 2.067c-.224.231-.468.506-.731.824a17.25 17.25 0 01-.795.894c-.267.278-.515.478-.743.598-.228.12-.412.18-.551.18-.441 0-.662-.363-.662-1.091 0-.264.112-.654.337-1.173l2.24-5.178c.155-.348.41-.521.767-.521.116 0 .232.022.348.069.341.162.512.422.512.777a.897.897 0 01-.07.337l-1.811 4.226.557-.546h.012c.921-.937 1.684-1.637 2.287-2.101.627-.573 1.149-.859 1.567-.859.232 0 .43.135.592.406.108.186.163.422.163.708 0 .14-.016.298-.047.477-.193 1.106-.29 2.065-.29 2.879 0 .316.012.576.035.777.03.333.15.499.359.499.363 0 .968-.468 1.811-1.404.743-.82 1.332-1.544 1.765-2.171a.432.432 0 01.36-.186c.085 0 .17.03.255.093.085.062.134.126.146.191s.018.11.018.133a.48.48 0 01-.07.256c-.201.287-.544.712-1.027 1.277a20.975 20.975 0 01-1.631 1.694c-.604.565-1.112.952-1.526 1.161s-.733.313-.957.313c-.523.002-.879-.377-1.072-1.136z"/><path d="M116.248 110.685c-.349-.086-.522-.379-.522-.883 0-.674.263-1.334.789-1.985.959-1.184 2.79-2.016 5.491-2.495h.034c.101 0 .197.036.291.109a.36.36 0 01.139.297c0 .263-.127.41-.383.44-.465.069-1.07.305-1.817.702a10.74 10.74 0 00-1.938 1.301c-.545.468-.818.865-.818 1.189 0 .155.066.232.197.232.225 0 .67-.274 1.335-.824a23.463 23.463 0 001.834-1.625c.442-.449.824-.674 1.15-.674.216 0 .324.082.324.244 0 .108-.05.248-.15.418a1.64 1.64 0 00-.203.568 3.425 3.425 0 00-.053.558c0 .101.008.205.023.313.054.41.141.627.262.65.119.022.198.035.237.035.286 0 .731-.256 1.335-.767.41-.341.991-.75 1.741-1.23.441-.271.806-.406 1.092-.406a.42.42 0 01.302.122.407.407 0 01.128.307.412.412 0 01-.128.302.41.41 0 01-.302.128c-.217 0-.848.375-1.893 1.126l-.186.14c-1.037.774-1.808 1.161-2.311 1.161-.131 0-.259-.02-.383-.058-.387-.116-.635-.589-.743-1.417a5.912 5.912 0 01-.012-.383v-.197c-.239.231-.669.58-1.288 1.044-1.401 1.062-2.48 1.591-3.239 1.591a1.606 1.606 0 01-.335-.033zm32.215 5.072a.845.845 0 01-.349-.557c-.194-.944-1.323-1.416-3.391-1.416-.742 0-1.481.03-2.217.093-1.192.108-2.36.235-3.506.383-1.54.217-2.739.325-3.599.325-.108 0-.219-.005-.331-.012a.378.378 0 01-.272-.134.407.407 0 01-.104-.272c0-.132.044-.236.133-.314a.447.447 0 01.297-.115h.034c.132.008.271.012.418.012.875 0 2.368-.236 4.481-.708a62.526 62.526 0 013.343-.65c1.494-4.326 3.352-8.234 5.572-11.726 1.78-2.801 3.967-5.51 6.56-8.126-2.856.055-5.321.345-7.396.871-2.956.759-4.976 2.295-6.06 4.608.178-.101.31-.15.395-.15.063 0 .093.034.093.104 0 .216-.325.646-.975 1.289l-.047.057a.378.378 0 01-.243.094.42.42 0 01-.151-.023c-.201-.054-.302-.186-.302-.395a.64.64 0 01.012-.128c.503-1.602 1.333-2.956 2.49-4.063a12.844 12.844 0 014.011-2.601 16.318 16.318 0 016.339-1.253c1.045 0 2.186.077 3.424.231l.035.013c2.693.34 4.833.982 6.42 1.927.139.085.209.201.209.348a.482.482 0 01-.082.25c-.054.089-.117.142-.191.156a.743.743 0 01-.156.023.459.459 0 01-.221-.058c-1.394-.805-3.518-1.235-6.373-1.289-1.881 2.105-4.005 5.069-6.374 8.893-2.507 4.048-4.48 7.654-5.92 10.819a9.702 9.702 0 011.219-.081c.852 0 1.609.124 2.275.371.976.356 1.582 1.143 1.822 2.356l.012.163a.83.83 0 01-.15.476.81.81 0 01-.697.36.843.843 0 01-.487-.151z"/><path d="M152.63 112.379c-.449-.154-.678-.541-.686-1.161 0-.813.372-2.491 1.115-5.038.363-1.253.546-2.009.546-2.264 0-.146-.017-.288-.047-.424a1.579 1.579 0 01-.047-.343c0-.062.01-.119.029-.174.019-.054.071-.081.156-.081a.98.98 0 01.313.07c.395.162.635.483.72.963.039.225.059.465.059.72 0 .805-.236 1.993-.708 3.563-.24.852-.36 1.382-.36 1.591 0 .124.027.186.082.186.162 0 .665-.592 1.509-1.776.472-.643.973-1.292 1.503-1.949.53-.658 1.031-1.169 1.504-1.532.255-.194.476-.291.661-.291.248 0 .564.217.952.65.201.225.483.472.848.743.897.681 2.275 1.021 4.132 1.021a.418.418 0 01.419.429.422.422 0 01-.122.302.393.393 0 01-.297.128c-1.624 0-2.921-.247-3.888-.742a5.685 5.685 0 01-1.695-1.277c-.193-.217-.329-.325-.406-.325a.167.167 0 00-.104.035c-.255.201-.501.497-.737.888s-.479.838-.726 1.341a24.951 24.951 0 01-1.155 2.049 8.122 8.122 0 01-1.637 1.887c-.654.557-1.221.836-1.7.836a1.298 1.298 0 01-.233-.025z"/><path d="M164.97 112.229c-.294-.295-.441-.682-.441-1.161 0-.564.112-1.161.337-1.788.201-.549.398-1.006.592-1.37-.681-.627-1.021-1.246-1.021-1.857 0-.673.283-1.284.848-1.833.526-.512 1.185-.887 1.974-1.127.665-.193 1.257-.29 1.776-.29.526 0 .971.104 1.335.313.711.418 1.087.871 1.126 1.358.038.487.058.781.058.882 0 1.091-.422 2.218-1.265 3.378 1.896-.054 3.835-.657 5.815-1.811a.441.441 0 01.232-.069c.146 0 .267.069.359.209a.443.443 0 01.059.22.4.4 0 01-.209.36c-2.229 1.301-4.369 1.95-6.42 1.95-.14 0-.298-.008-.476-.022a13.812 13.812 0 01-2.206 2.077c-.72.542-1.323.813-1.811.813a1.034 1.034 0 01-.662-.232zm3.076-7.593c-.658.162-1.153.395-1.486.697-.301.271-.452.584-.452.939 0 .14.02.287.058.441a10.651 10.651 0 011.88-2.077zm-.586 5.822c.43-.329.833-.683 1.213-1.063a9.909 9.909 0 01-1.741-.581c-.069.14-.17.368-.302.686-.232.534-.349.913-.349 1.138 0 .209.078.313.232.313.202 0 .517-.164.947-.493zm2.595-2.92c.395-.72.592-1.319.592-1.8 0-.665-.337-1.067-1.011-1.207-.681.666-1.446 1.823-2.298 3.472a5.843 5.843 0 001.95.673c.286-.372.542-.751.767-1.138z"/><path d="M180.77 110.835a5.518 5.518 0 01-.163-1.3c.008-1.122.098-2.179.268-3.17a27.538 27.538 0 00-2.252 2.067c-.225.231-.469.506-.731.824-.263.316-.528.614-.795.894-.268.278-.516.478-.743.598-.229.12-.412.18-.552.18-.441 0-.662-.363-.662-1.091 0-.264.113-.654.338-1.173l2.24-5.178c.154-.348.409-.521.766-.521.116 0 .232.022.349.069.34.162.511.422.511.777a.897.897 0 01-.07.337l-1.811 4.226.557-.546h.013c.92-.937 1.683-1.637 2.286-2.101.627-.573 1.149-.859 1.568-.859.23 0 .429.135.592.406.108.186.162.422.162.708 0 .14-.016.298-.046.477-.194 1.106-.291 2.065-.291 2.879 0 .316.012.576.035.777.03.333.15.499.359.499.364 0 .968-.468 1.811-1.404.744-.82 1.332-1.544 1.766-2.171a.429.429 0 01.359-.186c.085 0 .17.03.256.093.085.062.133.126.145.191s.018.11.018.133a.489.489 0 01-.069.256c-.202.287-.544.712-1.027 1.277a21.324 21.324 0 01-1.631 1.694c-.604.565-1.113.952-1.527 1.161s-.733.313-.958.313c-.523.002-.878-.377-1.071-1.136z"/><path d="M186.714 111.428c-.642-.047-1.014-.252-1.114-.616-.101-.363-.151-.657-.151-.882 0-.395.086-.84.255-1.335.21-.611.533-1.229.97-1.852a8.632 8.632 0 011.608-1.713c.225-.17.422-.255.592-.255a.44.44 0 01.174.035c.217.076.333.178.349.301.016.124.023.197.023.222 0 .208-.132.425-.395.649-.349.325-.705.836-1.068 1.532-.526 1.007-.789 1.737-.789 2.194 0 .256.088.426.267.511.054.023.12.035.197.035.302 0 .762-.182 1.382-.546.882-.503 1.942-1.408 3.181-2.717a.445.445 0 01.325-.139c.101 0 .193.04.278.122.085.081.128.152.128.214v.093a.424.424 0 01-.116.291c-1.292 1.37-2.414 2.325-3.367 2.867-1.122.657-1.996.987-2.623.987h-.106zm4.551-8.569a.54.54 0 00.128-.336c0-.194-.074-.317-.222-.372a.696.696 0 00-.255-.069c-.132 0-.286.042-.464.128-.465.231-.697.387-.697.464 0 .039.055.059.163.059.101 0 .236-.016.406-.047-.534.743-.801 1.228-.801 1.451.007.093.05.14.128.14.224-.001.762-.472 1.614-1.418z"/><path d="M196.964 110.835a5.52 5.52 0 01-.162-1.3c.008-1.122.097-2.179.267-3.17a27.538 27.538 0 00-2.252 2.067c-.225.231-.469.506-.731.824a17.25 17.25 0 01-.795.894c-.268.278-.515.478-.743.598s-.411.18-.552.18c-.44 0-.661-.363-.661-1.091 0-.264.112-.654.337-1.173l2.24-5.178c.154-.348.41-.521.766-.521.116 0 .232.022.349.069.341.162.511.422.511.777a.914.914 0 01-.069.337l-1.812 4.226.558-.546h.012c.921-.937 1.683-1.637 2.287-2.101.627-.573 1.149-.859 1.567-.859.231 0 .429.135.592.406.108.186.162.422.162.708 0 .14-.015.298-.046.477-.193 1.106-.291 2.065-.291 2.879 0 .316.012.576.035.777.031.333.151.499.36.499.363 0 .967-.468 1.811-1.404.743-.82 1.331-1.544 1.765-2.171a.43.43 0 01.359-.186c.086 0 .171.03.256.093.085.062.134.126.145.191a.48.48 0 01-.051.389c-.201.287-.543.712-1.027 1.277a21.148 21.148 0 01-1.631 1.694c-.604.565-1.112.952-1.526 1.161-.415.209-.733.313-.958.313-.522.002-.878-.377-1.072-1.136z"/><path d="M201.119 110.685c-.348-.086-.521-.379-.521-.883 0-.674.264-1.334.789-1.985.96-1.184 2.79-2.016 5.491-2.495h.035c.101 0 .197.036.29.109a.36.36 0 01.14.297c0 .263-.128.41-.384.44-.464.069-1.069.305-1.816.702-.747.399-1.394.833-1.939 1.301-.545.468-.817.865-.817 1.189 0 .155.065.232.197.232.225 0 .669-.274 1.335-.824a23.463 23.463 0 001.834-1.625c.441-.449.824-.674 1.149-.674.216 0 .325.082.325.244 0 .108-.051.248-.151.418a1.62 1.62 0 00-.203.568 3.54 3.54 0 00-.053.558c0 .101.008.205.023.313.055.41.142.627.262.65.12.022.199.035.238.035.285 0 .73-.256 1.334-.767.41-.341.991-.75 1.742-1.23.44-.271.805-.406 1.091-.406a.42.42 0 01.302.122.404.404 0 01.128.307.408.408 0 01-.128.302.41.41 0 01-.302.128c-.217 0-.848.375-1.893 1.126l-.185.14c-1.038.774-1.808 1.161-2.311 1.161-.132 0-.26-.02-.384-.058-.387-.116-.635-.589-.743-1.417a5.928 5.928 0 01-.011-.383v-.197c-.24.231-.67.58-1.289 1.044-1.4 1.062-2.48 1.591-3.238 1.591a1.64 1.64 0 01-.337-.033z"/></g><path d="M15.951 53.396v7.419h-.371l-2.597-7.048H6.306v11.87h5.193v-3.339h.371v7.048h-.371v-3.339H6.306V78.99h7.048l2.597-7.048h.371v7.419H0v-.371h2.226V53.768H0v-.371h15.951zm26.334.372h-2.968L30.6 79.363h-.742L20.77 53.768h-2.226v-.371h8.902v.371H25.22l7.048 19.66 6.677-19.66h-2.968v-.371h6.306v.371zm18.546 25.223v.371h-8.903v-.371h2.226l-2.411-6.677h-9.051l-2.263 6.677h2.967v.371H37.09v-.371h2.967l8.717-25.595h.742l9.088 25.595h2.227zm-9.274-7.048l-4.451-12.612-4.266 12.612h8.717zm28.189 0v7.419H63.054v-.371h2.226V53.768h-2.226v-.371h8.531v.371h-2.226v25.224h7.419l2.597-7.048h.371zm3.707-18.175v-.371h8.531v.371h-2.226v25.224h2.226v.371h-8.531v-.371h2.226V53.768h-2.226zm26.335 21.143c0-7.419-13.354-5.936-13.354-15.209 0-3.709 3.339-7.048 8.161-7.048 4.08 0 7.048 2.968 7.048 4.822 0 1.483-1.113 2.597-2.597 2.597s-2.597-1.113-2.597-2.597 1.112-2.597 2.597-2.597c.371 0 .927.186.927.186s-2.04-2.04-5.378-2.04c-3.339 0-5.564 2.226-5.564 4.451 0 7.419 13.354 5.935 13.354 15.209 0 4.08-3.338 7.419-8.531 7.419-5.564 0-8.531-5.008-8.531-5.008v-.52c.147.223 3.078 5.156 8.531 5.156 3.709.001 5.934-2.224 5.934-4.821zm21.883 4.451h-8.902v-.371h2.226V53.768h-2.226v-.371h7.048c6.677 0 9.273 2.597 9.273 5.563 0 4.822-5.935 5.193-5.935 5.193v.186s8.531.186 8.531 7.419c.001 4.265-3.338 7.604-10.015 7.604zm-2.597-25.594v10.386h.742c2.968 0 4.859-.557 4.822-.557v-9.273s-1.854-.556-4.822-.556h-.742zm8.161 24.111V65.638s-2.226-1.113-5.564-1.113h-2.597v14.467h2.597c3.339-.001 5.564-1.113 5.564-1.113zm24.108-24.483v7.419h-.37l-2.597-7.048h-6.678v11.87h5.193v-3.339h.371v7.048h-.371v-3.339h-5.193V78.99h7.048l2.597-7.048h.371v7.419h-16.321v-.371h2.226V53.768h-2.226v-.371h15.95zm25.593 25.595v.371h-8.902v-.371h2.226l-2.411-6.677h-9.051l-2.263 6.677h2.968v.371h-6.307v-.371h2.968l8.717-25.595h.742l9.088 25.595h2.225zm-9.274-7.048l-4.451-12.612-4.266 12.612h8.717zm20.216 8.161c-5.008 0-8.718-3.71-8.718-9.645V53.768h-2.226v-.371h8.532v.371h-2.226v24.667s1.854 1.299 4.637 1.299c4.822 0 8.346-3.524 8.346-9.273V57.514c-.037.074-.816 1.446-2.597 1.446a2.93 2.93 0 01-2.968-2.967c0-1.67 1.299-2.968 2.968-2.968s2.968 1.298 2.968 2.968V70.46c.001 5.935-3.709 9.644-8.716 9.644zm31.712-19.289h-.37l-2.597-7.048h-4.451v25.224h2.226v.371h-8.532v-.371h2.226V53.768h-4.451l-2.597 7.048h-.371v-7.419h18.918v7.418zm14.835 18.176h2.226v.371h-8.531v-.371h2.226V67.863l-7.048-14.096h-2.226v-.371h8.902v.371h-2.226l6.677 13.354 6.678-13.354h-2.968v-.371h6.306v.371h-2.968l-7.048 14.096v11.128z" fill="#FFF" stroke="#FFF" stroke-width=".5" stroke-miterlimit="10"/></svg>